<svg version="1" xmlns="http://www.w3.org/2000/svg" width="400" height="400" viewBox="0 0 300.000000 300.000000"><path d="M137.5 15.5c-5.4 2.2-9.6 6.1-44.7 41.2C50.3 99.2 50 99.6 49.2 112c-.5 8.2 2.5 16.6 7.9 22.4l3.7 4.1-8 8.3c-10.8 11.3-13.3 16.7-13.3 28.7 0 15.7-.9 14.5 47.3 62.7 48.2 48.2 47 47.3 62.7 47.3 15.7 0 14.5.9 62.7-47.3 48.2-48.2 47.3-47 47.3-62.7 0-12-2.5-17.4-13.4-28.8l-8-8.4 3.4-3.3c7.6-7.4 10.5-21.7 6.5-32.5-2.1-5.7-4.5-8.2-41.3-45.2-43.3-43.5-43.2-43.4-56.2-44-5.7-.3-8.1.1-13 2.2zm17 15c2.2.5 12.6 10.2 39.3 36.8 20 19.9 37 37.4 37.8 38.9 1.7 3.2 1.8 11 .3 14.1-1.6 3.2-71.9 73.6-75.3 75.3-3.6 2-10.6 2-14.2 0-3.5-1.8-73.7-72.1-75.4-75.4-1.6-3.3-1.5-10.4.3-13.8.9-1.6 17.9-19.2 37.9-39.1 26.7-26.6 37.1-36.3 39.3-36.8 1.7-.4 3.5-.8 4-.9.6-.2 1.5-.2 2 0 .6.1 2.4.5 4 .9zM103 180.4c27.1 27 30 29.5 35.3 31.5 3.2 1.2 8.2 2.1 11.2 2.1s8-.9 11.2-2.1c5.3-2 8.2-4.5 35.5-31.7l29.8-29.7 7.1 7c3.9 3.9 7.7 8.2 8.5 9.7 1.7 3.2 1.9 13 .3 16.1-1.6 3.2-80.9 82.6-84.2 84.3-3.7 2-12.7 2-16.4 0-3.4-1.8-82.6-81.1-84.3-84.4-1.5-3-1.5-12.4 0-15.4 1.2-2.3 15-16.8 16-16.8.2 0 13.7 13.2 30 29.4z"/></svg>